<svg xmlns="http://www.w3.org/2000/svg" xml:space="preserve" width="1079" height="786.237" viewBox="0 0 285.485 208.025">
  <path d="M-351.285 439.03c-.751-.182-2.056-.678-2.9-1.102l-1.534-.77-1.622-1.513-1.623-1.514-.84-1.574c-.46-.866-1.037-2.09-1.28-2.72l-.44-1.146-.15-6.05-.15-6.049-1.985-.572-1.984-.572-1.233-.85c-2.253-1.551-3.846-3.869-4.445-6.467l-.262-1.136-.006-6.929-.006-6.93-1.257-.181a11.79 11.79 0 0 1-4.914-1.935l-1.225-.843-.734-1.248-.734-1.248v-55.828l.59-1.101.588-1.102 1.151-.943c1.37-1.123 2.655-1.692 4.81-2.13l1.592-.325.133-7.665.132-7.665.996-2.015.997-2.015 1.308-1.176c1.515-1.363 2.686-1.974 4.901-2.56l1.588-.42.154-5.946.154-5.947.438-1.323c.558-1.68 1.7-3.643 2.99-5.136l1.008-1.167 1.558-1.007c.857-.554 2.23-1.279 3.052-1.61l1.493-.605 41.54-.132 41.54-.132.132-17.463.132-17.462.71-1.941c.389-1.067 1.103-2.609 1.587-3.426l.878-1.485 1.593-1.61 1.592-1.612 1.583-.96c.87-.527 2.356-1.224 3.302-1.549l1.72-.59 2.781-.126 2.782-.126 1.716.43 1.717.43 2.173 1.065 2.173 1.065 1.67 1.645 1.67 1.646.976 1.607c.537.884 1.337 2.55 1.778 3.704.441 1.153 4.408 9.896 8.815 19.427l8.012 17.33 18.645.15 18.646.15 1.587.432c4.27 1.162 7.449 2.695 10.647 5.135 2.425 1.85 4.276 3.867 6.078 6.625 1.934 2.96 3.004 5.48 4.035 9.507l.28 1.097 3.12.094 3.12.094 2.02.998 2.019.998 1.072 1.218c.59.67 1.401 1.888 1.803 2.706l.731 1.488.073 19.486.073 19.486.324.247.324.247 5.355-.118 5.354-.119.07-30.42.07-30.418.741-.639.743-.638h.796c.438 0 1.037.128 1.33.286l.535.285.374.897.375.896v5.769l1.257.365 1.256.365 2.117-.04 2.117-.04 1.19-.368 1.191-.367.132-3.52.133-3.518.624-.505.625-.505h2.011l.685.814.685.814v60.549l.463.044c.254.024 3.856.054 8.003.066l7.541.022.806.488c.443.269 1.098.915 1.455 1.436l.65.948v13.797l-.606.973-.605.974-1.132.548-1.132.547H-114.04v60.549l-.685.815-.685.814h-2.094l-.65-.65-.649-.65V424.126l-.33-.27c-.182-.15-.867-.419-1.522-.598l-1.19-.326-1.852-.016-1.853-.015-1.058.345c-.582.19-1.203.528-1.38.752l-.323.407.158 1.517.159 1.516-.19 1.522-.19 1.523-.627.626-.626.626h-1.846l-.743-.639-.742-.639-.07-30.455-.069-30.455-5.619.071-5.619.072-.132 19.579-.132 19.58-.6 1.3c-.792 1.716-2.192 3.396-3.69 4.427l-1.214.835-1.571.489-1.572.489h-5.224l-.278 1.124c-.976 3.938-2.18 6.762-4.205 9.856l-1.211 1.852-2.124 2.131c-4.132 4.147-8.944 6.672-14.588 7.656l-2.29.4-83.375-.023-83.375-.023zm51.77-79.226v-74.841l-1.654-.132c-.91-.072-12.253-.118-25.208-.102l-23.555.03-1.75.862-1.751.862-.985 1.09-.985 1.09-.697 1.487-.697 1.487v135.996l.741 1.587.742 1.588.978 1.009c1.256 1.295 2.499 2.06 4.008 2.467l1.204.324 24.804.018 24.805.018zm-46.561 59.963c-.486-.33-1.116-.916-1.4-1.3l-.518-.699-.221-1.153-.221-1.153.16-2.204.159-2.204.555-.815c.305-.448.89-1.063 1.301-1.367l.747-.554 16.583-.077c9.121-.043 16.967-.008 17.436.076l.852.154.81.683c.447.375 1.009 1.055 1.249 1.51l.437.83.008 2.777.008 2.778-.431.794c-.237.437-.806 1.151-1.265 1.588l-.835.793-17.266.072-17.265.072zm33.016-5.43-.081-1.256-11.906-.082c-6.549-.045-13.365-.003-15.148.093l-3.24.174v.988c0 .543.079 1.067.176 1.164l.176.176h30.103zm-33.32-31.138-.949-.646-.493-1.008-.494-1.008.025-2.847.026-2.847.671-1.014.671-1.015.936-.444.935-.443 17.193.071 17.193.072.729.544c.4.3.975 1.014 1.276 1.588l.547 1.043-.004 2.646-.004 2.646-.548 1.058-.548 1.059-.876.595-.876.595h-34.46zm33.371-5.308v-1.19h-30.427v2.38h30.427zm-32.147-30.485c-.29-.07-.899-.407-1.351-.748l-.823-.62-.491-1.007-.49-1.007.025-2.664.025-2.665.419-.81c.23-.445.783-1.116 1.23-1.492l.81-.682.853-.154c.468-.085 8.314-.12 17.435-.077l16.583.078.747.553c.411.304 1 .926 1.31 1.381l.564.827.186 1.98.185 1.98-.316 1.525-.317 1.525-.842.842-.841.841-1.046.29-1.046.291-16.14-.029c-8.877-.016-16.378-.087-16.669-.158zm26.128-4.813 6.02-.024V340.5l-2.269-.189-2.268-.189-12.88.115-12.879.115-.084 1.015-.085 1.016.259.16c.142.087 4.287.14 9.212.117 4.925-.023 11.663-.053 14.974-.066zm-27.056-32.105c-.481-.327-1.108-.91-1.393-1.294l-.517-.699-.223-1.153-.223-1.153.157-2.117.157-2.116.336-.662c.184-.364.638-.944 1.009-1.29l.673-.63 1.932-.177c1.062-.098 9.01-.147 17.663-.109l15.732.07.672.497c.37.273.932.88 1.25 1.346l.578.849.184 1.473.184 1.474-.163 1.562-.164 1.563-.375.721c-.492.945-1.435 1.808-2.36 2.159l-.745.282h-33.49zm33.024-5.424.082-1.124h-30.458v1.014c0 .558.08 1.095.179 1.193l.178.178 14.97-.068 14.968-.068zm133.004 128.848c4.045-1.145 7.2-2.927 10.152-5.735 2.04-1.94 3.458-3.973 4.858-6.96l1.051-2.243.5-2.418.498-2.417V305.13l-.499-2.418-.499-2.417-1.058-2.259c-1.273-2.715-2.229-4.142-4.211-6.283-2.733-2.952-6.516-5.192-10.792-6.39l-2.116-.594-52.388-.053c-28.813-.03-54.143.011-56.29.09l-3.903.143V434.29l.182.182.182.182 56.108-.072 56.109-.072zm-34.364-9.12-1.026-.27-1-1-1-1-.323-1.446-.323-1.446.12-3.01.12-3.01.418-.794c.51-.966 1.378-1.78 2.506-2.35l.847-.428 14.367.006 14.367.006 1.107.502 1.107.503.745 1.125.745 1.124.085 3.625.086 3.624-.287 1.064-.286 1.064-1.037.937-1.037.937-1.011.28-1.011.282-13.626-.026-13.626-.026zm28.147-7.214v-2.513h-2.05c-1.129 0-7.141-.08-13.362-.176l-11.311-.174V420.092h26.723zm-28.713-21.928c-.987-.435-2.432-2.045-2.703-3.013-.111-.398-.202-2.33-.202-4.295v-3.572l.702-1.193.701-1.194 1.054-.592 1.055-.593h29.455l.714.372c.99.515 1.806 1.442 2.29 2.6l.41.98-.007 3.514-.006 3.514-.494 1.09-.495 1.089-1 .763-1 .763-14.838.059-14.837.059zm28.58-7.043v-2.514l-13.295-.069-13.295-.068v5.301l13.295-.068 13.295-.069zm-28.586-21.929-1.069-.486-.717-.851c-1-1.19-1.113-1.783-1.113-5.839v-3.571l.553-1.059.552-1.058 1.124-.794 1.124-.794h29.455l.97.483.97.482.75 1.083.75 1.082v8.551l-.71 1.073-.71 1.073-1.16.561-1.16.561-14.27-.006-14.27-.006zm28.663-6.755.078-2.357-.21-.203-.21-.203-13.096-.085-13.097-.086-.076 2.575-.075 2.576 7.351.07c4.044.039 10.031.07 13.305.07h5.953zm-28.122-21.91a7.708 7.708 0 0 1-1.528-.796l-.733-.513-.577-1.103-.576-1.102-.11-2.894-.11-2.894.318-1.422.318-1.422.833-.949.833-.949.856-.357.855-.357h28.878l1.048.534 1.047.534.728 1.1.728 1.101v8.588l-.81 1.017-.808 1.016-1.166.595-1.165.596-14.033-.021-14.033-.021zm28.178-7.203v-2.498l-3.374-.092c-1.855-.051-7.868-.12-13.361-.154l-9.988-.06v5.303h26.723zm-28.713-21.947c-.985-.43-2.431-2.04-2.703-3.01-.111-.397-.202-2.33-.202-4.294v-3.572l.61-1.063.609-1.063.958-.657.959-.657 14.768-.072 14.768-.073.994.507c1.225.626 1.78 1.224 2.307 2.484l.407.974v6.913l-.407.974c-.525 1.257-1.082 1.858-2.294 2.477l-.982.5-14.496-.01-14.497-.01zm28.58-7.04v-2.513l-13.295-.069-13.295-.068v5.301l13.295-.069 13.295-.068zm67.601 57.773v-58.878l-1.124.222c-1.233.243-5.872.3-7.342.09l-.926-.133-.067 58.829-.067 58.828 1.39-.223c.764-.123 2.52-.205 3.903-.182l2.514.041.661.258c.364.143.75.206.86.142l.198-.117zm-242.953.163.067-51.69-.204-.204-.204-.205-1.337.62-1.336.619-.833 1.01-.833 1.01-.277 1.34-.277 1.338.07 46.831.07 46.832.572 1.058c.314.582.909 1.38 1.323 1.771.792.752 2.42 1.568 2.868 1.437l.265-.077zm208.492 51.557 1.226-.308 1.122-1.122 1.12-1.12.295-1.018.295-1.017-.078-47.669-.078-47.668-.805-1.147-.806-1.148-1.179-.656-1.179-.656-2.38-.005-2.382-.005-.068 51.594c-.037 28.376-.011 51.742.058 51.924l.125.33h1.744c.958 0 2.295-.138 2.97-.308zm-218.48-51.578v-28.605l-.983.185c-1.297.243-2.33.795-2.833 1.512l-.408.582-.007 26.417-.007 26.417.687.637c.632.585 2.43 1.388 3.22 1.438l.331.021zm238.594-.037.072-4.961h-11.389v9.701l.181.182.182.182 5.44-.072 5.442-.071zm32.714 4.932.419-.16v-9.733h-14.023v4.85c0 2.668.08 4.93.176 5.028l.177.176h6.416c3.53 0 6.605-.072 6.835-.16zM-223.922 279.4c-.077-.255-1.888-4.214-4.024-8.798-7.923-17.002-11.593-25.042-12.079-26.458-.274-.8-.943-2.102-1.486-2.893l-.986-1.439-1.528-1.125-1.528-1.124-1.478-.553c-.812-.304-2.174-.626-3.025-.715l-1.548-.162-1.664.327-1.665.326-1.45.703-1.45.702-1.46 1.462-1.46 1.462-.74 1.374-.74 1.374-.38 1.794-.38 1.794-.005 16.03-.005 16.03.176.175.176.177h38.868zm-30.83-21.505-1.67-.844-1.018-1.289-1.018-1.288-.449-1.35-.449-1.351.104-1.764.104-1.764.642-1.274.642-1.275 1.155-1.064 1.154-1.064 1.237-.559 1.237-.559 1.986-.01 1.986-.01 1.51.74 1.511.738 1.053 1.197 1.054 1.197.47 1.368.47 1.368-.012 1.72-.011 1.72-.59 1.323-.59 1.322-.978 1.014c-.539.558-1.507 1.326-2.152 1.707l-1.172.693-2.267.1-2.268.101zm5.083-4.362.845-.402.451-.764.452-.764V249.674l-.396-.764c-.217-.421-.66-.95-.985-1.178l-.59-.413h-2.535l-.931.86-.932.86-.149.939-.149.938.407.974.407.974.876.534.876.534h.753c.415.001 1.135-.179 1.6-.4z" style="fill:#ff112f" transform="translate(380.609 -231.381)" />
</svg>