<svg xmlns="http://www.w3.org/2000/svg" xml:space="preserve" width="817.994" height="926.675" viewBox="0 0 216.427 245.183">
  <path d="m-1415.687 434.924-2.116-.56-.957-.594c-.527-.326-1.07-.593-1.206-.593-.376 0-1.877-1.165-3.54-2.748-2.873-2.737-4.368-5.44-5.283-9.555l-.236-1.059-.01-27.282-.013-27.281-.801-1.029a998.32 998.32 0 0 1-1.314-1.69 1492.1 1492.1 0 0 0-1.854-2.381l-1.855-2.381a70.145 70.145 0 0 1-1.361-1.853 71.214 71.214 0 0 0-2.057-2.694 96.349 96.349 0 0 1-1.937-2.49l-.727-.986.019-42.225.019-42.224.227-1.323c.383-2.234 1.25-5.238 1.83-6.34.302-.577.55-1.254.55-1.506s.121-.532.27-.624c.148-.092.567-.754.93-1.47.364-.718.764-1.305.89-1.305.125 0 .366-.335.536-.745l.308-.745 2.303-2.278 2.304-2.278 1.852-1.197c1.019-.658 2.168-1.441 2.555-1.74.387-.298.907-.542 1.155-.542s.884-.24 1.413-.532c1.022-.564 4.06-1.46 6.254-1.844l1.323-.231 15.742-.024 15.743-.023.316-.201.317-.201.09-14.81.092-14.81.585-1.515c.321-.833.584-1.712.584-1.953 0-.241.225-.81.5-1.263.274-.454.588-1.123.697-1.487.11-.364.48-.998.824-1.41.344-.41.625-.874.625-1.03 0-.94 6.695-7.614 7.638-7.614.167 0 .797-.357 1.4-.794.603-.436 1.262-.794 1.466-.794.204 0 .742-.192 1.197-.427.455-.235 2.086-.768 3.625-1.185l2.798-.757h82.286l2.778.77c3.174.88 5.318 1.732 6.523 2.592.459.327.973.595 1.141.595 1.024 0 6.697 5.71 7.957 8.008 1.213 2.211 2.37 4.821 2.53 5.703.097.535.354 1.325.571 1.754l.396.78.043 45.919.043 45.918.313.728.313.727h16.428l.291.728c.16.4.5 1.144.754 1.654.255.509.547 1.28.65 1.71.171.728.742 2.086 2.017 4.801.28.598.51 1.227.51 1.398 0 .17.298.898.662 1.616.363.718.662 1.458.663 1.645 0 .186.296.934.654 1.662.358.728.654 1.48.659 1.673 0 .192.292.847.64 1.455.347.608.708 1.54.8 2.07l.17.967.372.309c.205.17.454.688.552 1.151.098.463.463 1.47.81 2.239.348.768.633 1.531.633 1.696 0 .165.283.786.63 1.381.345.595.716 1.489.824 1.986.107.497.419 1.271.692 1.72.274.448.498 1.006.499 1.24 0 .232.284.957.631 1.61.347.652.72 1.592.829 2.09.108.496.42 1.187.692 1.534l.494.63v34.294l-.326.201-.325.202-3.338-.076-3.337-.076-.438.438-.438.438v24.306l-28.509-.067-28.508-.067-.064-12.039-.064-12.038-.56-.463-.56-.463h-7.076l-.146-.596c-.081-.327-.113-8.096-.071-17.264l.075-16.669.727-1.48c.4-.815.728-1.604.728-1.754 0-.302 1.108-2.932 1.76-4.174.228-.436.571-1.27.761-1.852.48-1.466 1.657-4.355 2.121-5.2.212-.386.386-.863.386-1.058 0-.196.357-1.07.793-1.944.435-.873.792-1.742.793-1.931 0-.19.203-.725.45-1.191.446-.84.724-1.533 2.028-5.056.372-1.005.8-1.952.951-2.103.152-.152.276-.463.276-.693 0-.229.353-1.128.785-1.997.432-.87.79-1.743.794-1.942 0-.198.242-.794.527-1.323.286-.529.643-1.438.794-2.02.152-.582.547-1.535.879-2.117l.603-1.058 8.137-.133 8.138-.132.25-.397.251-.397v-89.164l-.24-.926c-1.211-4.672-3.893-8.834-7.28-11.299-1.108-.805-3.933-2.207-4.97-2.465-.472-.117-1.549-.402-2.393-.633l-1.534-.42-39.212.003-39.211.003-1.455.412c-.8.227-1.828.507-2.284.623-1.25.32-3.804 1.612-4.976 2.518-1.99 1.54-5.176 5.052-5.176 5.705 0 .171-.215.627-.479 1.014-.263.386-.799 1.669-1.19 2.85l-.712 2.15V240l.33.213.331.214 18.786.133 18.785.132 2.117.627c2.738.81 5.18 1.804 7.434 3.02 3.628 1.96 8.305 6.68 10.067 10.16.334.661.722 1.34.863 1.509.557.672 1.693 4.149 2.213 6.777l.55 2.778.084 41.936.085 41.937-1.172 1.587c-2.496 3.378-2.98 4.02-4.647 6.138a772.202 772.202 0 0 0-2.778 3.554c-.582.751-1.535 1.974-2.117 2.716l-1.058 1.35-.132 27.782-.133 27.781-.463 1.158c-.254.637-.463 1.327-.463 1.533 0 .507-1.706 3.963-2.524 5.114-2.194 3.086-5.687 5.543-9.514 6.694l-1.852.557-35.984.042-35.983.042zm74.76-4.86c3.28-1.22 5.354-2.857 7.264-5.74l.884-1.334.323-1.323c.177-.727.454-1.49.614-1.694l.293-.371.132-28.336.133-28.336 1.341-1.72c.738-.946 2.106-2.732 3.041-3.969.935-1.237 1.764-2.308 1.842-2.38.08-.074.615-.788 1.192-1.588.576-.8 1.795-2.385 2.708-3.52l1.66-2.064-.071-41.195-.072-41.195-.7-2.25c-.638-2.05-.909-2.771-1.784-4.762-1.296-2.946-4.506-6.66-7.722-8.931-1.418-1.003-4.83-2.71-5.414-2.71-.232 0-1.039-.268-1.794-.596l-1.372-.595h-79.11l-1.268.585c-.698.322-1.71.667-2.25.766-.538.1-1.264.402-1.61.672-.348.27-.765.493-.927.495-.596.01-4.936 3.216-6.131 4.53-1.424 1.564-3.35 4.295-3.952 5.603a18.653 18.653 0 0 1-.62 1.24c-.13.218-.578 1.408-.998 2.645l-.765 2.25-.072 41.83-.072 41.83 1.395 1.75c1.659 2.08 2.89 3.686 6.686 8.712.291.386 1.244 1.63 2.117 2.766l1.587 2.065.133 28.708.132 28.707.77 1.573c.424.865 1.054 1.996 1.4 2.514.703 1.052 2.97 3.454 3.259 3.454.102 0 .636.357 1.185.793l1 .794.558.007c.308.004 1.035.232 1.617.508l1.059.5 35.204.022 35.204.022zm-71.452-3.47c-1.15-.246-2.783-1.28-3.865-2.45l-.821-.89-.342-1.322c-.188-.728-.443-1.436-.568-1.574-.124-.139-.224-.674-.223-1.19v-.94l.672-1.98.672-1.982.583-.623c.32-.342 1.103-.975 1.74-1.405l1.157-.783 1.326-.252 1.327-.251 3.205.011c1.762.006 3.7.108 4.307.225l1.102.214 1.224.81c1.192.79 2.037 1.754 2.95 3.365l.446.79v5.036l-.307.741c-.505 1.224-1.847 2.71-3.303 3.657l-1.371.893-4.498.049-4.498.048zm9.354-4.674 1.23-.938v-.385c0-.212.118-.385.264-.385h.264v-2.04l-.937-1.228-.938-1.228-.769-.398-.769-.397h-6.29l-1.225.954-1.225.955-.18.566c-.23.72-.165 2.6.116 3.36l.216.583 1.04.738 1.04.738 3.467.021 3.468.022zm20.084 4.65c-1.413-.336-3.253-1.901-4.52-3.844l-.691-1.059v-5.291l.712-1.2c.863-1.453 1.76-2.303 3.507-3.321l1.323-.771 4.763.004 4.762.004 1.532.887 1.531.887.609.83c.335.455.883 1.364 1.218 2.019l.61 1.19.013 1.985.013 1.984-.686 1.455-.686 1.456-.886.838c-.487.461-1.47 1.146-2.182 1.521l-1.296.683-4.393-.027c-2.415-.015-4.777-.118-5.248-.23zm9.443-4.397 1.035-.685.318-.836c.175-.46.366-1.075.425-1.366l.106-.529-.43-1.128-.43-1.127-1.148-.79-1.15-.791h-6.307l-1.06.768c-.584.423-1.317 1.18-1.628 1.685l-.566.916v1.922h.793v1.013l1.11.816 1.111.817h6.786zm20.218 4.414c-.882-.224-1.05-.34-2.975-2.057l-1.24-1.107-.587-1.823-.587-1.822v-1.935l.674-1.79.674-1.791.715-.747c.393-.411 1.37-1.126 2.17-1.59l1.456-.841h9.789l1.223.849c.672.467 1.765 1.453 2.43 2.191l1.206 1.343.18 1.443c.1.794.135 2.255.079 3.246l-.102 1.804-1.013 1.526c-.557.839-1.21 1.598-1.45 1.686-.24.088-.844.467-1.341.842l-.905.68-4.784.052-4.783.051zm9.6-4.673 1.15-.944v-.379c0-.208.12-.379.265-.379h.265v-2.403l-.576-.778c-.316-.428-1.028-1.078-1.582-1.445l-1.006-.666-3.114.001-3.115.001-1.311.994-1.312.993-.183.66a7.641 7.641 0 0 0-.21 1.488l-.026.83.392.756c.216.416.833 1.085 1.37 1.485l.978.73H-1344.832zm-68.038-14.118c-.436-.097-1.342-.436-2.013-.755l-1.219-.579-1.056-1.145-1.055-1.145-.57-1.814c-.687-2.19-.69-2.416-.05-4.768l.502-1.852 1.551-1.463 1.551-1.463 1.078-.323 1.078-.323h8.454l1.252.377 1.252.377 1.547 1.626 1.547 1.626.311 1.843.311 1.843-.297 1.708-.298 1.708-.763 1.131c-.42.622-.982 1.326-1.25 1.563-.523.465-2.313 1.312-3.766 1.782l-.9.291-3.201-.034c-1.761-.02-3.56-.114-3.996-.21zm7.409-4.216 1.322-.492.886-1.293.885-1.294-.141-1.057-.141-1.057-1.192-1.126-1.192-1.126H-1411.567l-.932.818-.931.818-.279 1.034-.278 1.034.272 1.01.271 1.01.661.62c.364.342 1.11.83 1.657 1.086l.996.465 2.249.02 2.249.022zm21.96 4.102c-2.667-.875-4.097-2.013-5.202-4.139l-.619-1.19.01-2.545.01-2.544.776-1.16a17.412 17.412 0 0 1 1.805-2.185l1.028-1.025 1.209-.364 1.208-.364 4.257.001 4.258.001 1.027.286 1.027.285 1.296 1.212 1.296 1.212.687 1.346.688 1.345.025 1.853.026 1.854-.589 1.252c-.324.69-.589 1.35-.589 1.467 0 .117-.46.664-1.024 1.214l-1.025 1-1.422.692-1.423.692-3.837.076-3.836.075zm8.184-4.274 1.503-.665.416-.989.416-.989v-1.871l-.446-.862-.446-.862-.847-.516-.847-.517h-3.58l-3.578-.002-.607.425c-.334.234-.956.906-1.382 1.495l-.775 1.07V400.856l.86 1.116.86 1.116 1.19.477 1.191.478 2.282.015 2.282.015zm21.978 4.383c-.436-.107-1.406-.462-2.155-.787l-1.361-.592-.888-1.103c-.488-.607-1.155-1.758-1.481-2.559l-.594-1.456v-2.38l.595-1.684.595-1.684 1.359-1.34 1.358-1.34 1.155-.346 1.155-.346h4.101l4.101-.001 1.433.38 1.432.382 1.308 1.372c.72.754 1.474 1.768 1.677 2.253l.368.881v4.383l-.27.97-.27.971-1.224 1.362-1.224 1.362-1.084.485c-.596.267-1.489.616-1.984.776l-.899.291-3.202-.027c-1.76-.015-3.558-.115-3.995-.223zm7.387-4.213 1.302-.494.742-.895.742-.895.01-1.384.01-1.384-1.146-1.196-1.145-1.195h-7.745l-.932.818-.932.819-.302 1.008-.302 1.008.17.903.168.902.858.82c.471.453 1.273 1 1.783 1.22l.926.396 2.249.022 2.249.021zm-67.976-15.208c-1.279-.368-2.689-1.301-3.536-2.34l-.626-.768-.631-1.865c-.772-2.282-.776-2.58-.063-4.878l.568-1.83.93-1.06.931-1.057 1.478-.79 1.478-.79 4.63-.004 4.63-.004 1.374.734 1.374.734 1.198 1.369 1.197 1.368.206 1.205c.114.662.198 1.979.186 2.924l-.02 1.72-.338 1.014-.338 1.015-1.42 1.42-1.422 1.422-1.377.409-1.377.409-3.987-.026-3.987-.026zm9.352-4.037c.334-.234.956-.906 1.382-1.495l.775-1.07V380.1l-.824-1.12-.824-1.121-1.017-.52-1.018-.518h-5.334l-.981.504c-.54.278-1.297.844-1.682 1.257l-.7.752-.176.838-.176.838.293 1.087.293 1.088 1.086.786 1.085.787h7.212zm20.333 4.104-1.007-.237-1.158-.968c-.637-.533-1.55-1.574-2.03-2.315l-.873-1.346.011-2.515.011-2.516.328-.661c.747-1.504 1.105-2.025 1.939-2.82l.876-.836 1.699-.708 1.699-.708 4.122.093 4.121.092 1.456.76c1.755.916 2.468 1.647 3.494 3.583l.78 1.47.02 1.984.021 1.985-.679 1.475-.679 1.476-1.317 1.184-1.317 1.184-1.372.317-1.373.317-3.882-.027-3.883-.027zm9.855-4.622 1.044-.944.3-.91.3-.91-.428-1.29c-.486-1.463-.936-1.952-2.327-2.534l-.974-.406h-5.209l-1.08.521-1.079.522-.822 1.118-.822 1.118V381.925l.961 1.174c.529.645 1.213 1.275 1.521 1.4l.56.225 3.505.017 3.505.017zm19.765 4.512-1.284-.353-.684-.616a20.355 20.355 0 0 1-1.361-1.385l-.678-.77-.596-1.73-.595-1.728v-1.951l.666-1.769.666-1.769.874-.9.874-.9 1.763-.825 1.763-.825 4.304.09 4.304.088 1.455.826 1.455.826 1.19 1.551 1.191 1.552v6.102l-.974 1.469-.974 1.468-1.01.688c-.556.378-1.487.816-2.069.973l-1.058.285-3.969-.022-3.969-.023zm10.16-4.796 1.31-1.227v-2.45l-.65-.96-.653-.959-1.151-.557-1.152-.557h-5.415l-.847.427a8.107 8.107 0 0 0-1.564 1.098l-.717.67-.17 1.132-.17 1.13.318.964.318.963 1.072.777 1.072.776h7.087zm-35.523-15.376c-.17-.4-.471-.921-.668-1.159-.197-.237-.59-.862-.875-1.389-1.185-2.196-1.51-2.752-2.496-4.265-1.032-1.585-1.435-2.268-2.473-4.198-.302-.563-.749-1.244-.991-1.512l-.442-.488.158-.41c.087-.226.433-.516.77-.644s.772-.424.966-.658l.352-.424h1.44l.438.484c.241.266.438.554.438.639 0 .085.537 1.028 1.193 2.096.657 1.067 1.436 2.446 1.733 3.065l.539 1.124h.401c.222 0 .616-.114.876-.253l.474-.254 1.427-2.396a170.649 170.649 0 0 0 1.972-3.385l.545-.988.807-.08.807-.08.803.675c.442.372.934.676 1.095.676h.293v.425c0 .233-.36.957-.8 1.609a32.092 32.092 0 0 0-1.325 2.155c-.478.88-2.253 3.823-2.9 4.807-.144.218-.5.836-.79 1.373-.524.966-1.448 2.434-2.258 3.588l-.419.595h-.78zm-33.28-4.313c-.51-.123-1.977-.362-3.26-.532l-2.334-.308-1.106-.843-1.106-.843-.225-1.057-.224-1.057.404-.967.404-.967 1.591-.803 1.592-.804 3.168-.3 3.167-.301 3.216.286 3.215.286 1.394.66c.767.363 1.551.848 1.742 1.078l.347.418.116 1.248.116 1.248-.267.69-.268.69-1.193.7-1.194.7-2.068.278c-1.138.153-2.643.39-3.345.528-1.489.292-2.592.284-3.883-.028zm65.05.159c-.094-.097-1.463-.345-3.043-.553-2.756-.361-4.329-.78-4.329-1.155 0-.096-.346-.38-.77-.63l-.77-.456-.175-1.033-.175-1.033.389-.752c.555-1.073 1.172-1.557 2.797-2.196l1.428-.562 2.878-.293 2.878-.293 3.227.297 3.226.296 1.688.831 1.687.83.375.897.374.896-.17 1.068-.172 1.069-1.383.918-1.383.918-2.749.406c-1.512.224-3.403.474-4.204.556l-1.455.15zm-68.49-14.962c-.8-.272-1.725-.502-2.055-.511l-.599-.018-.948-.869-.948-.869-.121-1.181-.12-1.182.521-.83.522-.831 1.543-.708 1.543-.709 2.117-.252c2.5-.297 6.84-.272 8.909.053l1.47.23 1.495.685 1.496.685.393.76.392.758v2.02l-.664.978-.665.978-.989.266-2.485.671-1.496.405-3.928-.017-3.928-.018zm30.845.024c-.251-.278-.746-.578-1.1-.666l-.641-.162v-1.302l.983-1.527c.54-.84 1.195-1.913 1.455-2.386l.945-1.72a41.91 41.91 0 0 1 1.8-2.955c.942-1.438 1.964-3.192 2.37-4.073l.406-.877.576.083.577.083.854 1.455a58.7 58.7 0 0 1 1.26 2.25 25.973 25.973 0 0 0 1.93 3.207c.324.453.713 1.108.866 1.454.152.347.627 1.166 1.056 1.82 1.3 1.987 1.855 3.122 1.855 3.794v.64l-.785.325c-.431.18-.922.491-1.09.694l-.306.368h-1.249l-.672-1.256a45.951 45.951 0 0 0-1.338-2.315 24.834 24.834 0 0 1-1.183-2.152l-.517-1.093-.654-.428c-.36-.236-.824-.428-1.031-.428h-.378l-.409 1.022a12.893 12.893 0 0 1-1.02 1.942c-.337.507-.91 1.426-1.274 2.043-.364.616-.94 1.468-1.28 1.893l-.62.772h-.464c-.255 0-.67-.227-.922-.505zm32.664-.164-2.24-.603-1.001-1.073-1.002-1.074V344.582l.86-1.107.86-1.107 1.455-.533c.8-.293 2.349-.647 3.44-.787l1.984-.254 3.745.135 3.745.136 1.073.548c.59.3 1.245.547 1.454.547h.38l.82.935.822.936V346.554l-.915.886-.914.887-2.456.62-2.456.621-3.707-.033-3.707-.033zm-26.506-19.638-48.589-.067-.157-.41c-.11-.284-.252-59.702-.166-69.372v-.331h49.19c27.055 0 49.35.06 49.544.135l.352.135-.065 34.563-.065 34.563-.274.33c-.151.183-.48.374-.729.426-.25.052-22.32.065-49.044.028zm45.925-4.185.415-.416v-61.546l-.39-.323-.39-.324-44.714-.008-44.715-.008-.668.438-.668.438V324.332l.33.417c.182.23.51.48.728.559.218.078 20.48.151 45.026.163l44.63.02zm94.72 72.23.416-.415v-18.718l-.588-.411-.588-.412H-1284.284l-.415.415-.416.416v18.71l.416.416.416.416h45.962zm8.353-25.247.283-.529-.075-13.996-.075-13.996-.437-.49c-.24-.27-.592-1.027-.781-1.682-.19-.655-.558-1.547-.819-1.984-.26-.437-.475-.984-.475-1.217 0-.233-.285-.958-.632-1.61-.347-.653-.717-1.579-.822-2.057-.105-.478-.404-1.242-.663-1.697a11.034 11.034 0 0 1-.772-1.775 15.716 15.716 0 0 0-.822-1.974c-.288-.565-.527-1.21-.532-1.434 0-.224-.186-.641-.402-.928-.217-.286-.52-1-.675-1.587-.155-.587-.501-1.543-.77-2.125-1.366-2.958-1.849-4.094-1.849-4.349 0-.154-.357-1.036-.794-1.96-.436-.924-.793-1.85-.793-2.058 0-.209-.162-.614-.36-.9-.197-.288-.51-.999-.693-1.581-.398-1.26-1.25-2.781-1.817-3.241l-.406-.331h-33.48l-.679.728-.679.727-.359 1.2c-.197.66-.61 1.67-.919 2.245-.308.575-.56 1.201-.56 1.392 0 .19-.298.906-.662 1.59-.364.683-.661 1.388-.661 1.567 0 .179-.285.954-.632 1.722-.348.768-.713 1.775-.811 2.238-.098.463-.342.977-.542 1.143-.2.166-.444.67-.542 1.12-.1.45-.464 1.353-.811 2.006-.347.652-.632 1.377-.632 1.61 0 .233-.225.79-.499 1.24-.273.448-.584 1.212-.69 1.696-.107.485-.478 1.416-.825 2.068-.347.653-.632 1.377-.633 1.61 0 .233-.238.781-.527 1.218-.29.436-.527.972-.529 1.19 0 .219-.359 1.112-.794 1.985-.435.873-.792 1.829-.793 2.124 0 .295-.193.81-.427 1.145-.234.334-.59 1.224-.79 1.977l-.365 1.368v26.097l.274.511.274.512h63.199z" style="fill:#ff112f" transform="translate(1440.954 -190.301)" />
</svg>