<svg xmlns="http://www.w3.org/2000/svg" xml:space="preserve" width="839.5" height="579.088" viewBox="0 0 222.118 153.217">
  <path d="M-238.604 444.486c-13.913-.137-22.908-.328-24.05-.512-1.54-.247-1.997-.451-2.921-1.303-2.109-1.944-2.265-2.562-2.27-9.011-.004-6.793-.034-6.895-2.118-7.166a31.605 31.605 0 0 1-2.712-.492c-1.687-.404-2.377.056-3.357 2.239-.97 2.161-2.997 4.19-5.275 5.276l-1.747.833H-295.489l-1.985-.792c-1.674-.67-2.325-1.132-4.167-2.958-1.2-1.19-2.183-2.357-2.183-2.591 0-.235-.268-.928-.595-1.54l-.595-1.115v-56.091l.824-1.41c.941-1.611 2.914-3.363 4.072-3.618.432-.095 1.025-.477 1.318-.85.527-.669.533-1.013.533-32.143 0-21.185.09-31.634.274-31.979.243-.455.575-.512 3.01-.512 2.123 0 2.81.09 3.07.402.253.305.32 2.231.283 8.053-.048 7.508-.038 7.658.502 7.947.304.162 1.113.26 1.8.215l1.247-.08.132-7.938c.073-4.366.229-8.086.347-8.268.163-.253 2.134-.332 8.334-.337 10.113-.007 9.47.254 9.351-3.79-.074-2.557-.039-2.8.451-3.063.753-.403 6.985-.375 7.394.033.207.207.317 1.296.317 3.134 0 2.392.073 2.882.484 3.254.432.391 1.545.438 10.41.438 9.28 0 9.955-.031 10.364-.484.349-.385.438-1.047.438-3.254 0-1.802.11-2.882.317-3.088.493-.492 6.936-.435 7.437.066.3.299.357.935.264 2.905-.117 2.472-.105 2.535.6 3.189l.72.666h10.095c7.498 0 10.176-.081 10.412-.317.209-.21.317-1.323.317-3.255 0-1.931.11-3.045.318-3.254.385-.385 6.754-.439 7.35-.062.312.197.375.795.314 2.972-.116 4.153-1.178 3.771 10.716 3.85 12.29.08 11.36.388 11.24-3.73-.074-2.557-.038-2.8.452-3.063.753-.403 6.985-.375 7.393.033.207.207.317 1.296.317 3.134 0 2.392.073 2.882.484 3.254.433.391 1.554.438 10.543.438 9.408 0 10.086-.031 10.496-.484.35-.386.438-1.05.438-3.298 0-2.511.055-2.843.512-3.088.648-.347 6.107-.36 7.011-.016.671.255.679.29.679 3.134 0 2.45.072 2.941.484 3.314.432.391 1.553.438 10.53.438 7.461 0 10.129-.082 10.364-.317.21-.21.318-1.323.318-3.255 0-1.931.108-3.045.317-3.254.385-.385 6.754-.439 7.35-.062.312.197.376.795.315 2.972-.116 4.123-.981 3.769 9.435 3.86 7.314.064 8.781.14 9.053.468.243.292.313 2.325.276 8.043-.048 7.508-.039 7.658.502 7.947.303.162 1.113.259 1.799.215l1.248-.08.132-7.938c.073-4.366.228-8.086.346-8.268.291-.45 5.503-.461 5.951-.014.245.246.317 15.111.317 65.3v64.984l-.758 1.176c-.875 1.358-1.847 2.283-3.343 3.185l-1.058.637-25.664-.065c-14.116-.035-37.869-.13-52.785-.21-31.677-.169-28.387-.517-28.484 3.017-.032 1.168-.173 2.54-.314 3.05-.408 1.478-2.043 3.212-3.754 3.98l-1.513.679-7.904-.048c-4.348-.027-17.906-.147-30.13-.267zm39.67-3.225c1.213-.926 1.47-1.95 1.471-5.886.001-2.66.077-3.271.439-3.572.314-.26 1.265-.361 3.373-.356 1.615.004 25.975.109 54.134.233l51.196.227 1.246-.965c.87-.674 1.328-1.261 1.52-1.953.416-1.499.378-34.781-.04-35.2-.21-.21-1.353-.317-3.387-.317s-3.176.107-3.387.318c-.238.238-.317 3.657-.317 13.758 0 13.088-.014 13.455-.53 13.97-.515.515-.881.529-14.029.529h-13.5l-.258-.679c-.142-.373-.258-3.238-.258-6.367 0-3.326-.111-5.896-.267-6.188-.25-.467-.666-.5-6.34-.514-5.747-.013-6.087.014-6.348.5-.172.323-.274 3.504-.274 8.563v8.05l-.826 1.601c-.63 1.221-1.147 1.81-2.183 2.485l-1.357.883H-153.954l-1.28-.926c-2.058-1.49-2.892-2.861-3.021-4.97-.06-.977-.228-1.925-.375-2.107-.183-.227-1.136-.331-3.019-.331-2.71 0-2.756-.01-3.01-.679-.142-.373-.258-3.147-.258-6.164 0-3.915-.091-5.578-.318-5.804-.407-.407-9.532-.446-10.283-.044-.482.258-.512.61-.512 5.953 0 5.327-.033 5.713-.529 6.209-.512.512-.882.529-11.345.529-9.248 0-10.863-.057-11.142-.393-.237-.286-.315-1.758-.285-5.358.023-2.73.106-5.221.184-5.535.079-.314.003-.832-.167-1.152-.287-.535-.472-.573-2.364-.487-1.222.055-2.229.24-2.49.456-.382.317-.437 1.087-.437 6.099 0 4.108-.09 5.825-.317 6.053-.238.237-3.217.317-11.774.317-11.104 0-11.473-.016-11.986-.53-.495-.494-.53-.881-.53-6.044 0-6.66.068-6.514-2.927-6.345-2.73.155-2.664-.015-2.596 6.673.052 5.118.02 5.554-.436 5.887-.392.286-2.357.359-9.692.359-8.825 0-9.211-.02-9.474-.512-.164-.306-.274-2.733-.274-6.035 0-4.134-.087-5.642-.347-5.996-.301-.413-.69-.462-3.002-.382-1.743.06-2.807.218-3.093.456-.382.317-.437 1.09-.437 6.099 0 4.108-.09 5.825-.318 6.053-.215.215-1.452.317-3.836.317-4.966 0-4.578.692-4.578-8.161 0-6.429.044-7.142.463-7.521.6-.542 3.924-.756 11.576-.745l13.097.02c4.002.007 9.776.008 12.832.003 3.056-.005 9.902-.004 15.214.001 5.311.005 12.128.006 15.147.002 3.02-.004 9.42-.008 14.221-.009 4.803-.001 12.452-.012 17-.024 4.547-.013 9.017.06 9.932.16 2.263.248 2.437.067 2.437-2.525 0-1.529-.108-2.174-.417-2.483-.376-.376-3.735-.418-33.668-.416-30.443 0-33.4.04-35.016.451-1.666.426-1.875.425-3.705-.007-1.76-.414-3.984-.455-24.12-.435-16.643.016-22.273-.057-22.555-.29-.495-.41-.476-1.166.04-1.683.372-.371 2.644-.416 21.035-.416 16.302 0 20.625-.07 20.65-.33.08-.873-.14-1.5-.979-2.779-.935-1.427-1.828-2.008-4.344-2.824-.655-.212-2.203-.757-3.44-1.21a245.248 245.248 0 0 0-3.704-1.324c-.8-.275-2.467-.87-3.704-1.323a249.11 249.11 0 0 0-3.704-1.323c-.8-.274-2.467-.873-3.704-1.33a185.263 185.263 0 0 0-3.44-1.233 33.044 33.044 0 0 1-2.249-.872c-.582-.257-1.433-.549-1.892-.648-.459-.1-1.288-.412-1.842-.694-.554-.283-1.222-.514-1.484-.514s-.98-.232-1.598-.515c-1.114-.512-2.965-1.19-5.751-2.107-.8-.264-2.026-.76-2.724-1.104l-1.268-.624-3.05-6.19c-1.676-3.403-3.159-6.443-3.294-6.754a7.974 7.974 0 0 0-.505-.962c-.143-.219-.438-.814-.657-1.323-.219-.51-.515-1.105-.658-1.323-.532-.81-1.338-2.762-1.338-3.238 0-.297.343-.655.86-.9a37.89 37.89 0 0 0 2.09-1.11c3.643-2.086 4.765-2.69 4.99-2.69.138 0 .937.378 1.777.84.84.461 2.123 1.157 2.85 1.544 1.52.81 5.465 2.947 7.409 4.013.727.399 1.859 1.006 2.513 1.349.655.343 2.263 1.202 3.572 1.908 1.31.706 3.188 1.68 4.173 2.165l1.792.881 6.543-.002c3.598 0 17.139-.177 30.09-.39 12.952-.215 37.36-.512 54.24-.662 16.88-.15 37.832-.397 46.559-.55 14.986-.263 15.886-.253 16.206.184.507.694.494 31.389-.014 31.81-.229.19-2.52.317-6.548.363l-6.197.071-.064 11.245c-.035 6.185.035 11.399.156 11.588.173.271 2.444.343 10.924.343 5.888 0 10.91-.08 11.163-.176.252-.097.582-.407.733-.69.182-.34.267-5.06.249-13.846-.027-13-.014-13.338.493-13.61.287-.153 2.048-.278 3.925-.278 2.294 0 3.507-.103 3.721-.317.452-.452.452-13.466 0-13.917-.214-.215-1.44-.318-3.786-.318-2.392 0-3.611-.105-3.93-.337-.427-.313-.455-1.139-.38-11.52.068-9.592.136-11.217.476-11.432.218-.138 2.264-.253 4.545-.255 3.415-.003 4.222-.077 4.564-.42.372-.372.416-3.017.416-25.152 0-16.546-.09-24.907-.274-25.25-.299-.558-.915-.676-1.193-.228-.096.156-.158 3.74-.136 7.964.027 5.504-.05 7.784-.27 8.05-.264.318-15.177.372-102.917.372-66.03 0-102.85-.092-103.287-.258l-.679-.258v-7.356c0-6.23-.063-7.446-.412-7.944-.484-.691-1.052-.763-1.283-.162-.09.235-.159 14.596-.154 31.914.007 22-.076 31.59-.274 31.828-.156.188-.784.334-1.395.326-1.5-.022-3.116.85-4.13 2.229l-.828 1.127.07 28.053.072 28.054.87 1.502c1.01 1.747 2.172 2.84 4.1 3.856 1.377.726 1.391.727 7.691.811l6.312.084 1.405-.711c2.63-1.331 4.35-3.925 4.404-6.645.034-1.669.561-1.98 2.543-1.5 1.377.333 7.945 1.394 8.715 1.407.769.013.901 1.158.878 7.593-.021 5.99.019 6.59.506 7.594.91 1.877.721 1.84 10.73 2.076 13.046.307 52.215.63 53.372.44.542-.089 1.4-.478 1.908-.865zm-70.89-100.046c-5.281-2.802-6.408-9.055-2.316-12.848 2.198-2.039 2.626-2.224 5.358-2.318l2.514-.086 1.62 1.052c1.866 1.21 3.409 3.081 3.833 4.649.162.597.238 1.956.17 3.02-.108 1.712-.24 2.104-1.155 3.439-.648.945-1.624 1.9-2.618 2.565-1.494.997-1.716 1.063-3.835 1.144-2.017.077-2.385.013-3.572-.617zm4.996-1.97c1.586-.367 3.244-2.144 3.636-3.896.504-2.253.003-3.965-1.6-5.465-.99-.925-1.55-1.233-2.5-1.376-2.698-.404-4.36.318-6.027 2.619-.651.898-.755 1.285-.755 2.814 0 1.54.102 1.913.776 2.843 1.716 2.37 3.668 3.112 6.47 2.462zm26.886 1.933c-2.794-1.632-4.763-4.626-4.763-7.24 0-2.635 1.922-5.585 4.663-7.157 1.207-.693 1.6-.778 3.597-.778 2.15 0 2.305.042 3.804 1.013 2.065 1.34 3.374 3.064 3.956 5.214.441 1.631.441 1.79-.003 3.434-.59 2.176-2.017 4.016-4.093 5.278-1.442.876-1.685.936-3.756.934-1.91-.002-2.378-.098-3.405-.698zm5.064-1.917c2.161-.503 3.934-2.926 3.929-5.37-.004-1.69-1.013-3.634-2.38-4.581-1.028-.713-1.35-.793-3.174-.793-1.804 0-2.151.084-3.127.76-2.458 1.704-3.241 4.931-1.774 7.31 1.527 2.474 3.648 3.342 6.526 2.674zm26.528 1.6c-3.754-2.445-5.145-6.24-3.603-9.833.708-1.65 1.762-2.825 3.6-4.012 1.5-.97 1.658-1.013 3.807-1.013 1.997 0 2.39.085 3.597.778 1.896 1.088 3.178 2.518 3.978 4.44.841 2.02.863 3.32.09 5.255-.759 1.897-2.218 3.569-4.012 4.595-1.268.725-1.638.807-3.653.807-2.153 0-2.303-.04-3.804-1.017zm5.548-1.614c1.18-.274 2.632-1.56 3.364-2.98 1.548-3.003-.59-7.274-3.887-7.768-4.884-.732-8.286 3.701-6.115 7.97 1.26 2.48 3.635 3.474 6.638 2.778zm27.736 2.354c-1.276-.512-3.007-1.92-3.987-3.243-1.31-1.766-1.726-3.69-1.298-5.993.38-2.041 2.044-4.216 4.21-5.502 1.358-.805 1.68-.883 3.642-.887 1.912-.004 2.308.083 3.537.788 4.141 2.374 5.7 6.676 3.775 10.418-.932 1.81-2.184 3.083-3.953 4.014-1.076.567-1.636.68-3.307.666-1.106-.01-2.285-.127-2.62-.261zm5.752-3.117c1.755-1.413 2.378-2.606 2.388-4.57.008-1.508-.094-1.888-.746-2.787-1.165-1.609-2.29-2.426-3.612-2.624-3.01-.451-5.62.949-6.35 3.405-.735 2.477-.35 4.264 1.279 5.944 1.335 1.377 2.176 1.666 4.395 1.51 1.375-.096 1.887-.266 2.646-.878zm25.52 2.71c-1.548-.816-2.506-1.682-3.633-3.284-.811-1.154-.837-1.277-.837-3.97 0-2.531.058-2.86.656-3.703 1.061-1.498 1.913-2.373 3.18-3.264 1.154-.811 1.277-.837 3.969-.837s2.815.026 3.969.837c2.814 1.98 3.968 3.998 3.968 6.937 0 1.64-.126 2.258-.693 3.378-.84 1.66-2.174 2.994-3.91 3.908-1.858.978-4.812.978-6.668-.001zm4.786-1.877c.791-.13 1.392-.512 2.409-1.529 1.514-1.514 1.889-2.752 1.545-5.104-.152-1.04-.417-1.491-1.538-2.62-1.123-1.13-1.567-1.395-2.61-1.551-.691-.104-1.823-.104-2.514 0-1.04.156-1.49.423-2.62 1.551-1.128 1.129-1.395 1.58-1.551 2.62-.339 2.26.032 3.568 1.423 5.026 1.543 1.618 2.925 2.025 5.456 1.607zm27.256 1.898c-5.28-2.802-6.407-9.055-2.316-12.848 2.199-2.039 2.627-2.224 5.359-2.318l2.514-.086 1.62 1.052c1.866 1.21 3.409 3.081 3.833 4.649.161.597.238 1.956.17 3.02-.108 1.712-.24 2.104-1.155 3.439-.648.945-1.624 1.9-2.618 2.565-1.494.997-1.716 1.063-3.835 1.144-2.017.077-2.385.013-3.572-.617zm4.997-1.97c1.586-.367 3.244-2.144 3.636-3.896.504-2.253.003-3.965-1.6-5.465-.99-.925-1.55-1.233-2.5-1.376-2.698-.404-4.36.318-6.027 2.619-.651.898-.755 1.285-.755 2.814 0 1.54.102 1.913.776 2.843 1.716 2.37 3.668 3.112 6.47 2.462zm-33.962 88.284c.221-.178.668-.666.992-1.086l.589-.763v-25.288l-.685-.814-.685-.814H-154.287l-.685.814-.685.814v25.562l1.06.957 1.058.957 7.21-.008c5.258-.006 7.318-.096 7.612-.33zm-125.8-8.238c.469-.343.52-.773.584-4.961.082-5.237-.07-5.856-1.47-5.992-.663-.065-1.035.095-1.647.707l-.79.79.004 3.923c.004 4.223.187 4.993 1.324 5.568.856.433 1.365.424 1.995-.035zm26.881-.462c.412-.536.476-1.19.481-4.88.006-4.187-.006-4.272-.658-4.977l-.665-.718-6.338.084c-5.66.074-6.388.133-6.81.555-.407.407-.481 1.058-.543 4.762-.08 4.807.092 5.52 1.389 5.745.426.073 3.45.114 6.721.09 5.897-.042 5.951-.048 6.423-.661zm30.226.309c.46-.46.395-9.85-.072-10.412-.324-.39-1.294-.437-9.082-.437h-8.72l-.772.773-.774.773.004 3.923c.004 4.125.197 5 1.21 5.506.767.383 17.815.265 18.206-.126zm27.682.13c.943-.3 1.111-1.106 1.111-5.33 0-4.6-.2-5.238-1.723-5.524-.48-.09-4.167-.126-8.191-.079-5.556.065-7.4.169-7.66.43-.24.24-.391 1.672-.5 4.762-.146 4.104-.014 5.524.544 5.869.315.194 15.783.073 16.419-.129zm21.179-.151c.13-.208.24-2.542.242-5.187.005-5.566-.024-5.641-2.122-5.641-1.01 0-1.355.113-1.569.511-.16.299-.274 2.497-.274 5.273 0 3.844.076 4.836.39 5.152.509.507 2.994.427 3.333-.108zm34.423-13.647c.457-.414.483-1.19.475-13.957-.007-10.822-.078-13.611-.36-13.982-.332-.438-2.657-.463-42.258-.463-39.37 0-41.963.029-42.826.463-.89.449-1.575 1.274-6.755 8.145a372.574 372.574 0 0 1-3.373 4.41c-.691.88-1.257 1.772-1.257 1.98 0 .356-.838 2.336-1.784 4.216-.229.454-.341 1.02-.25 1.257.152.395 2.804.43 31.87.43 24.308 0 31.78-.073 32.024-.317.226-.226.317-1.881.317-5.767 0-3.887.091-5.542.318-5.768.237-.238 3.297-.318 12.138-.318 10.137 0 11.868.056 12.148.393.246.297.273 1.189.111 3.638a162.89 162.89 0 0 0-.267 5.362c-.029 1.164-.205 3.75-.39 5.745-.258 2.763-.266 3.79-.033 4.3l.305.67h4.682c3.984 0 4.753-.065 5.165-.437zm-101.322-9.021c2.589-2.675 2.268-6.755-.685-8.732-1.13-.755-1.5-.86-3.045-.86-1.543 0-1.918.106-3.052.86-2.332 1.551-3.294 4.587-2.158 6.813.26.51.9 1.373 1.423 1.919l.95.992H-226.407zm79.051-1.214c4.002 0 7.647.09 8.1.202 1.305.319 1.85-.68 2.085-3.828.167-2.227.134-2.57-.276-2.91-.382-.318-2.05-.4-9.443-.466-6.579-.058-9.078.004-9.352.231-.285.236-.374 1.081-.374 3.541 0 1.777.089 3.32.197 3.428.108.108.555.108.992 0 .438-.109 4.07-.198 8.071-.198zm38.296-15.124c.037-7.72-.038-13.389-.18-13.612-.195-.307-.938-.372-3.767-.328-1.939.03-10.847.173-19.796.318-8.95.144-29.607.379-45.906.522-16.298.143-41.48.452-55.959.687l-26.326.427-1.72-.954a108.56 108.56 0 0 0-2.778-1.491 86.001 86.001 0 0 1-2.646-1.432 147.19 147.19 0 0 0-3.704-1.992 125.735 125.735 0 0 1-2.778-1.474c-3.283-1.87-7.994-4.33-8.798-4.595-.779-.257-1.205-.258-1.984-.008-1.62.522-3.506 1.854-3.506 2.478 0 .303 1.177 2.932 2.614 5.842 1.438 2.911 3.111 6.317 3.719 7.57 1.245 2.567 2.308 3.727 3.854 4.205.582.18 1.415.485 1.852.679.748.331 2.031.796 5.424 1.965.8.276 2.467.872 3.704 1.325 1.237.452 2.904 1.048 3.704 1.323.8.274 2.467.873 3.704 1.33 1.237.455 2.785 1.01 3.44 1.233.655.223 1.667.615 2.249.872.582.257 1.473.557 1.98.667.508.11 1.162.354 1.456.54.293.188 1.068.481 1.723.651.655.17 1.548.472 1.985.67.908.41 3.218 1.233 5.612 1.997.905.29 1.715.64 1.802.78.262.424 1.605.286 2.026-.208.217-.254.54-.832.718-1.283.41-1.038 2.152-2.706 3.865-3.7 1.144-.666 1.59-.769 3.307-.764 2.423.007 3.96.718 5.943 2.749.722.74 1.51 1.345 1.751 1.345.249 0 1.358-1.23 2.565-2.845 7.932-10.607 8.11-10.82 9.272-11.011.536-.089 20.516-.163 44.4-.164 37.503-.003 43.468.049 43.742.378.233.281.309 2.697.288 9.157-.021 6.352.056 8.878.28 9.148.255.306 1.44.36 6.558.302l6.248-.07zm22.506-6.8c.465-.465.442-16.485-.025-17.41-.32-.635-.445-.664-3.162-.736-4.218-.112-3.904-.869-3.904 9.415 0 6.19.084 8.497.317 8.73.21.211 1.353.318 3.387.318s3.176-.107 3.387-.317zm-184.672-58.122c.276-.175.352-1.54.352-6.325 0-6.274-.096-6.93-1.089-7.46-.306-.165-3.12-.272-7.128-.272-6.277 0-6.637.027-6.897.512-.302.565-.394 13.303-.097 13.6.259.259 14.446.207 14.86-.055zm5.746-.053c.096-.156.173-3.159.17-6.673-.005-6.257-.017-6.4-.586-6.86-.76-.615-.95-.596-1.725.179l-.65.65v6.34c0 4.824.08 6.371.332 6.473.619.25 2.283.176 2.459-.109zm24.178-.09c.474-.571.28-12.884-.211-13.477-.326-.391-1.379-.437-10.202-.437-8.075 0-9.931.068-10.353.376-.48.35-.519.795-.593 6.77-.058 4.608.007 6.498.23 6.768.258.31 2.05.374 10.565.374s10.307-.064 10.564-.374zm5.523.056c.228-.228.317-2.024.316-6.416-.001-6.02-.01-6.108-.63-6.883-.571-.715-.69-.756-1.326-.466-.385.175-.816.625-.959 1-.39 1.026-.338 12.369.059 12.765.174.175.746.318 1.27.318s1.095-.143 1.27-.318zm24.862-6.372c.046-4.22-.029-6.742-.208-7.077-.27-.504-.605-.52-10.344-.52h-10.065l-.773.773-.774.773v6.093c0 5.523.044 6.118.463 6.364.3.176 4.184.25 11.047.211l10.583-.06zm5.3 6.372c.229-.228.317-2.02.314-6.416-.004-6.75-.121-7.358-1.445-7.51-1.392-.16-1.462.192-1.462 7.371 0 3.586.08 6.6.177 6.697.299.298 2.08.194 2.416-.142zm24.35.087c.275-.175.35-1.545.35-6.36 0-6.623-.116-7.242-1.436-7.573-.328-.082-4.846-.114-10.042-.07-8.65.072-9.486.119-9.919.55-.421.422-.48 1.141-.552 6.704-.057 4.486.007 6.336.231 6.605.259.312 2.057.374 10.663.37 5.694-.001 10.511-.103 10.704-.226zm5.745-.053c.097-.156.173-3.159.17-6.673-.005-6.257-.017-6.4-.586-6.86-.76-.615-.95-.596-1.724.179l-.65.65v6.34c0 4.824.08 6.371.33 6.473.62.25 2.284.176 2.46-.109zm24.41-.034c.228-.228.317-2.031.317-6.443v-6.126l-.649-.7-.649-.7h-9.751c-8 0-9.844.067-10.266.375-.48.35-.518.795-.593 6.77-.057 4.608.007 6.498.23 6.768.259.31 2.066.374 10.677.374 7.71 0 10.447-.081 10.683-.318zm5.563.087c.276-.175.352-1.54.352-6.325 0-6.304-.093-6.928-1.113-7.474-.442-.236-.663-.152-1.317.503l-.787.786v6.053c0 4.355.09 6.142.318 6.37.363.363 2.022.42 2.547.087zm24.59-6.459c.046-4.22-.028-6.742-.207-7.077-.27-.503-.605-.52-10.204-.52h-9.925l-.65.7-.648.7v6.126c0 4.444.088 6.214.32 6.446.243.243 2.866.304 10.782.252l10.462-.07zm5.3 6.372c.23-.228.317-2.02.314-6.416-.004-6.75-.121-7.358-1.444-7.51-1.393-.16-1.462.192-1.462 7.371 0 3.586.079 6.6.176 6.697.299.298 2.08.194 2.417-.142zm18.786 0c.228-.228.317-2.016.317-6.375 0-5.739-.029-6.099-.558-6.842l-.558-.784-7.106.082c-6.4.074-7.152.129-7.577.554-.422.42-.481 1.14-.552 6.703-.058 4.486.007 6.336.23 6.606.42.505 15.302.559 15.804.056zm-109.123-16.635c.61-.48.697-.74.697-2.084 0-1.814-.328-2.2-1.768-2.08l-1.01.083-.08 1.851c-.07 1.633-.012 1.907.492 2.316.724.585.822.58 1.669-.086zm89.958 0c.61-.48.697-.74.697-2.084 0-1.814-.327-2.2-1.767-2.08l-1.011.083-.08 1.851c-.07 1.633-.012 1.907.493 2.316.723.585.821.58 1.668-.086zm-149.606-.413c.599-.76.738-2.424.275-3.289-.277-.517-1.572-.7-2.483-.351-.602.231-.588 3.182.02 3.853.624.69 1.549.6 2.189-.213zm29.698.26c.36-.326.484-.821.484-1.932 0-1.744-.287-2.129-1.587-2.129-1.287 0-1.588.386-1.588 2.038 0 1.05.133 1.535.53 1.931.643.643 1.51.68 2.161.091zm60.26-.26c.6-.76.738-2.424.275-3.289-.277-.517-1.572-.7-2.482-.351-.603.231-.588 3.182.02 3.853.623.69 1.548.6 2.188-.213zm29.934.208c.468-.379.618-.797.665-1.858.075-1.655-.319-2.15-1.705-2.15-1.303 0-1.622.376-1.622 1.916 0 1.009.139 1.421.65 1.932.777.777 1.208.811 2.012.16z" style="fill:#ff112f" transform="translate(305.014 -291.584)" />
</svg>